<svg width="16" height="16" viewBox="0 0 16 16" fill="none" xmlns="http://www.w3.org/2000/svg">
<g clip-path="url(#clip0)">
<path d="M13.2767 8.68534C13.018 8.35868 13.092 8.21334 13.2767 7.92134C13.28 7.91801 15.4153 4.96734 15.6353 3.96668L15.6367 3.96601C15.746 3.60134 15.6367 3.33334 15.108 3.33334H13.3587C12.9133 3.33334 12.708 3.56334 12.598 3.82068C12.598 3.82068 11.7073 5.95268 10.4473 7.33468C10.0407 7.73401 9.85267 7.86201 9.63067 7.86201C9.52133 7.86201 9.35133 7.73401 9.35133 7.36934V3.96601C9.35133 3.52868 9.22667 3.33334 8.858 3.33334H6.10733C5.828 3.33334 5.662 3.53734 5.662 3.72734C5.662 4.14201 6.292 4.23734 6.35733 5.40401V7.93534C6.35733 8.49001 6.25667 8.59201 6.03333 8.59201C5.43867 8.59201 3.99533 6.45134 3.14 4.00134C2.96733 3.52601 2.79867 3.33401 2.35 3.33401H0.6C0.100667 3.33401 0 3.56401 0 3.82134C0 4.27601 0.594666 6.53668 2.76533 9.52334C4.212 11.562 6.24933 12.6667 8.10267 12.6667C9.21667 12.6667 9.35267 12.4213 9.35267 11.9993C9.35267 10.0513 9.252 9.86734 9.81 9.86734C10.0687 9.86734 10.514 9.99534 11.554 10.9787C12.7427 12.1447 12.938 12.6667 13.6033 12.6667H15.3527C15.8513 12.6667 16.104 12.4213 15.9587 11.9373C15.626 10.9193 13.378 8.82534 13.2767 8.68534Z" fill="white"/>
</g>
<defs>
<clipPath id="clip0">
<rect width="16" height="16" fill="white"/>
</clipPath>
</defs>
</svg>
